<?xml version="1.0" encoding="utf-8"?>
<!-- Generator: Adobe Illustrator 17.0.0, SVG Export Plug-In . SVG Version: 6.00 Build 0)  -->
<!DOCTYPE svg PUBLIC "-//W3C//DTD SVG 1.1//EN" "http://www.w3.org/Graphics/SVG/1.1/DTD/svg11.dtd">
<svg version="1.1" id="Layer_1" xmlns="http://www.w3.org/2000/svg" xmlns:xlink="http://www.w3.org/1999/xlink" x="0px" y="0px"
	 width="200px" height="200px" xml:space="preserve">
<g>
	<path style="fill:none;stroke:#231F20;stroke-width:4;stroke-linecap:round;stroke-miterlimit:10;" d="M48.328,84.419
		c-1.208,20.457-0.647,42.396,1.583,62.666c1.147,10.429-0.999,29.352,1.735,32.384c2.734,3.031,98.039,4.635,100.053,0
		c2.014-4.635-1.64-38.5-2.744-58.002c-0.803-14.184,3.313-39.167,0.869-41.067s-31.088,2.987-45.111,3.767
		c-13.609,0.757-27.401,0.143-41.041,0.247c-5.265,0.04-10.532,0.334-15.795,0.23"/>
	<path style="fill:none;stroke:#231F20;stroke-width:4;stroke-linecap:round;stroke-miterlimit:10;" d="M53.931,84.757
		c4.84-19.733,10.413-50.188,27.762-63.173c20.834-15.594,35.746,18.927,42.36,33.579c4.088,9.057,7.846,18.25,12.114,27.228"/>
	<path style="fill:none;stroke:#231F20;stroke-width:4;stroke-linecap:round;stroke-miterlimit:10;" d="M59.868,84.57
		c6.272-16.144,11.49-45.726,25.066-57.431c14.89-12.837,27.345,15.027,32.472,25.626c4.635,9.582,8.747,20.97,12.649,30.867"/>
	<path style="fill:none;stroke:#231F20;stroke-width:4;stroke-linecap:round;stroke-miterlimit:10;" d="M129.184,90.346
		c3.443,1.179,6.417,3.258,9.91,4.505"/>
	<path style="fill:none;stroke:#231F20;stroke-width:4;stroke-linecap:round;stroke-miterlimit:10;" d="M136.616,90.572
		c-2.884,1.404-5.414,4.765-8.333,7.207"/>
	<path style="fill:none;stroke:#231F20;stroke-width:4;stroke-linecap:round;stroke-miterlimit:10;" d="M54.959,91.346
		c1.774,3.543,7.106,4.38,10.36,6.982"/>
	<path style="fill:none;stroke:#231F20;stroke-width:4;stroke-linecap:round;stroke-miterlimit:10;" d="M63.517,94.274
		c-2.932,0.413-5.611,2.484-8.108,4.505"/>
</g>
</svg>
